<svg xmlns="http://www.w3.org/2000/svg" version="1.1" viewBox="141 402 1759 590">
<path transform="translate(263,402)" d="m0 0h10l24 8 27 6 19 3 12 1h58l6 3 5 5 4 6 1 3v12l-3 17 28 3 7-1 9-7 7-6 7-3h11l8 4 8 9 5 11 3 12v22l-3 15-6 15-7 10-7 7-7 4-5 1h-8l-8-4-8-9-7-10-5-3-29-4-2 9-2 16-4 9-7 8-9 4-16 3-14 1h-21l-25-2-29-5-21-6-13-5-13-7-8-9-2-5v-20l2-15-14-1-10-1h-9l-7 4-7 7-9 5-2 1h-10l-8-4-7-7-6-12-3-12-1-7v-11l3-19 6-15 6-10 10-10 11-4 9 1 6 3 8 8 7 11 6 3 10 2 19 2 4-23 4-9 7-6z" fill="#F394F4"/>
<path transform="translate(387,609)" d="m0 0h12l6 3 5 4 4 7 3 21v6l28-4 7-3 6-7 6-9 9-6 3-1h9l9 4 8 7 7 11 5 11 4 18v22l-4 16-6 11-7 7-6 3-9 1-9-3-10-8-5-5-3-2h-13l-21 3 2 16v16l-5 10-5 5-9 6-20 7-26 6-25 4-12 1h-36l-19-3-10-3-8-6-6-9-3-17-2-13-25 3-8 3-6 7-8 11-6 4-7 2-9-1-10-6-9-10-8-17-3-12-1-9v-14l3-16 5-12 9-10 5-3 4-1h8l8 3 10 9 7 5 5 1 27-3 2-1-2-18v-8l4-10 8-7 5-2h12l8 1h44l23-3 29-6z" fill="#A777F5"/>
<path transform="translate(265,812)" d="m0 0h9l24 8 27 6 18 3 13 1h58l7 4 6 7 3 9-2 20-1 6 27 3 8-1 9-7 8-7 5-2h13l8 5 7 8 5 12 3 12v21l-4 17-5 12-7 11-9 8-6 3-4 1h-8l-8-4-8-9-7-10-5-3-31-5-1 17-3 14-7 10-10 5-12 3-23 2h-14l-29-2-31-6-21-6-16-7-8-5-7-8-3-8v-11l3-21-20-2-12-1-8 5-10 9-10 4-11-1-8-6-6-8-5-11-2-8v-28l4-16 4-10 7-10 5-6 10-6 10-1 9 3 5 5 7 9 4 6 5 3 25 4h5l4-24 4-8 8-6z" fill="#7763FB"/>
<path transform="translate(492,468)" d="m0 0 7 1v3l11 1 4-1 3 7 2 9v22l-3 15-6 15-7 10-7 7-7 4-5 1h-8l-8-4-8-9-7-10-5-3-29-4-2 9-2 16-4 9-7 8-9 4-16 3-14 1h-21l-25-2-29-5-21-6-13-5-13-7-8-9-2-5v-20l1-7 3-1 1-3 3 4v2h2l7 9 8 6 3 1 1 2 3 1v2l6 2 8 4h11l1-5-3-6 1-4 7-4 5-4 7-2 3-6 6-2v-3l22-7 10-9 11-7 9-4h4v2l10-2 12 2 7 1 5 2 11 1 10 1 2 1 14-5 3-2 19-3 8-5 7-2v-2l4 1z" fill="#BC81F6"/>
<path transform="translate(387,609)" d="m0 0h12l6 3 5 4 4 7 3 21v6l28-4 7-3 6-7 6-9 9-6 3-1h9l9 4 8 7 5 8h-3l-5-5-4-1-4 1-4-2h-8l-7 1-1 4-7 5h-2v2l-6 4-10 4-4-1-1 1-11 1-2 1h-8l-3-1-1 2-10-3-1-3h-27l-13 4-6 4-22 7-10 2v2l-7 1 1 2h-8l-2 4-10 3-7 1v2l-9 4-13 5-3-1 8-4-6 2-8 7h-3l-7 6-10 4-5 6-1 5-5 6-4 2v-2l-7 3-10 2 5 2v3h-3l-1 2-4-2-2 2-2-1-2 4-5 3-12 9-6 9 1 3 8 1 3 1-6 3-8 1-9-3-8-6-7-8-8-17-3-12-1-9v-14l3-16 5-12 9-10 5-3 4-1h8l8 3 10 9 7 5 5 1 27-3 2-1-2-18v-8l4-10 8-7 5-2h12l8 1h44l23-3 29-6z" fill="#BD82F6"/>
<path transform="translate(613,621)" d="m0 0h22l4 4 11 19 8 13 15 25 13 22 11 18 2 1 2-6 13-22 9-15 15-26 9-15 10-17 5-1h18l1 1 1 153-1 1h-26l-1-1-1-98-10 16-9 15-13 22-16 26-2 2h-12l-4-5-14-23-17-28-13-21-2-3-1 98h-27l-1-8v-145z" fill="#133151"/>
<path transform="translate(1046,612)" d="m0 0h27v164h-26l-1-13-11 8-12 5-5 1h-22l-11-3-12-6-10-9-7-9-5-11-3-14v-16l3-14 7-14 9-10 8-6 8-4 16-4h17l12 3 8 4 9 7v-58zm-36 68-12 2-9 5-8 9-4 10-1 6v11l3 11 6 9 7 6 9 4 13 1 10-2 10-6 7-8 4-10 1-7v-8l-2-10-5-10-7-7-9-4z" fill="#153253"/>
<path transform="translate(1743,621)" d="m0 0 27 1v89l-1 14-4 16-6 11-7 9-12 9-13 5-16 3h-19l-16-3-16-8-11-10-8-13-4-11-2-10-1-12v-89h29l1 89 2 15 5 12 6 7 10 5 9 2h14l13-4 8-6 5-7 4-14 1-10 1-89z" fill="#153153"/>
<path transform="translate(1182,619)" d="m0 0 17 1 16 4 17 9 10 9 2 4-16 16-4-1-7-6-16-8-12-2h-9l-15 3-12 6-10 9-6 9-4 9-2 10v16l4 15 6 10 6 7 12 8 12 4 6 1h17l16-5 10-7 5-5 4 2 8 8 7 6-1 4-12 10-16 8-15 4-8 1h-19l-16-3-15-6-13-9-8-7-9-12-7-15-3-11-1-6v-21l4-17 8-16 8-10 7-7 15-10 12-5 14-3z" fill="#123051"/>
<path transform="translate(864,657)" d="m0 0h16l16 4 10 5 10 9 6 7 6 12 3 12 1 12-1 8-92 1 7 14 7 6 8 4 9 2h14l12-3 9-6 2-2 4 1 8 10 4 4-3 5-10 8-13 5-10 2h-24l-12-3-10-4-11-8-7-7-8-14-3-9-1-6v-18l3-12 7-14 7-9 11-8 8-4 10-3zm2 22-10 3-6 4-8 9-3 7v5l1 1h39l26-1-1-6-6-11-7-6-9-4-4-1z" fill="#143153"/>
<path transform="translate(1540,657)" d="m0 0h15l14 3 14 7 10 9 7 10 5 13 2 11v15l-1 1h-92l9 18 4 2 9 5 10 2h13l12-3 10-6 4-2 13 14-1 5-10 8-11 5-14 3h-23l-16-4-11-6-11-9-7-10-5-11-3-16v-8l3-16 8-16 10-11 13-8 13-4zm1 22-11 4-8 6-6 10-2 5v3l2 1h63l2-1-3-10-6-8-7-6-12-4z" fill="#143152"/>
<path transform="translate(1306,657)" d="m0 0h17l16 3 12 6 6 5 7 11 3 9 1 6v79h-26l-1-12-8 7-12 5-5 1h-22l-13-4-9-6-6-7-4-9-1-5v-8l3-10 6-9 8-6 11-4 15-2 36-1-2-11-3-6-6-5-10-3h-15l-16 4-10 5h-4l-8-16v-4l9-5 9-4 13-3zm-5 69-7 3-5 6v11l4 6 4 3 6 2h15l10-3 10-9 3-9v-9l-1-1z" fill="#143153"/>
<path transform="translate(1800,658)" d="m0 0 98 1v16l-8 10-9 11-11 13-9 11-13 16-12 14-2 3 65 1 1 5v15l-2 2h-100l-1-3 1-15 14-17 9-11 14-17 11-13 8-10 6-8 1-2h-62v-21z" fill="#143153"/>
<path transform="translate(265,812)" d="m0 0h9l24 8 27 6 18 3 13 1h47l-1 2-10 1h-39l-5 1-5-2-2 2-12 1h-13l-9-1-13 2-7 1-16 3-7 4-6 4-8 9-7 3-3 3-7 1-11 1-4-1-14 3-16 3-6 2-2 4-4 4-8 3-5 7h-4l-2 8-2 5 1 4v10l5 8 3 4 12 3v1l-11-1-8-6-6-8-5-11-2-8v-28l4-16 4-10 7-10 5-6 10-6 10-1 9 3 5 5 7 9 4 6 5 3 25 4h5l4-24 4-8 8-6z" fill="#A978F5"/>
<path transform="translate(1463,657)" d="m0 0h8l1 1v24l-5 1-12 1-9 4-8 7-4 8-2 10-1 62-1 1h-26l-1-116 1-2 26 1v8l-1 6 5-3 7-6 11-5z" fill="#123051"/>
<path transform="translate(245,741)" d="m0 0 11 6 5 3v2l7 2 11 5 20 6 14 3 13 1 4 1h29l6-1h11l13-2 7 1 1 2-2 4-23 6-27 5-20 2h-36l-10-2-5-2-7-2-2-2h-3l-8-7-4-2 2-1-4-4-2-10-1-4z" fill="#7965FB"/>
<path transform="translate(236,520)" d="m0 0h5l8 10 5 3v2l5 2 7 6 10 6 16 8 18 7 9 2 12 3 14 3 16 1 8 1v2h7l1 3-5 2-7 1h-21l-25-2-29-5-21-6-13-5-13-7-8-9-1-6v-13l1-8z" fill="#AA7BF5"/>
<path transform="translate(244,751)" d="m0 0h2l2 9v5l4 2-1 3 6 3 6 6h3l3 2 9 2 1 2-9-1-10-3-8-6-6-9-2-9z" fill="#B589F6"/>
<path transform="translate(347,830)" d="m0 0h56l-1 2-10 1h-39l-5 1-3-2h2z" fill="#C183F5"/>
<path transform="translate(225,733)" d="m0 0 14 1v2l-23 3-8 3-3 2 1-4 6-4 10-2z" fill="#C688F6"/>
<path transform="translate(167,655)" d="m0 0h8l4 2-17 3-6 4-1 2h-2l-1 4h-2l-2 5-1-2 6-9 8-7z" fill="#F4A0F5"/>
<path transform="translate(249,624)" d="m0 0h12l8 1v1l-21 1-5 3-5 2 5-5z" fill="#F39EF4"/>
<path transform="translate(202,744)" d="m0 0 3 1-9 13-1-4 4-6h2z" fill="#CE8DF6"/>
<path transform="translate(244,751)" d="m0 0h2l2 11-2 4-2-9z" fill="#BD94F7"/>
<path transform="translate(499,629)" d="m0 0 5 5 3 5h-3l-5-5z" fill="#D09AF7"/>
</svg>